<svg xmlns="http://www.w3.org/2000/svg" viewBox="0 0 512.001 512.001"><path d="M502 492.001h-8v-292c0-5.523-4.477-10-10-10h-80c-5.523 0-10 4.477-10 10v107c0 5.523 4.477 10 10 10s10-4.477 10-10v-97h60v282h-60v-87.015c0-5.523-4.477-10-10-10s-10 4.477-10 10v87.015h-24v-226c0-5.523-4.477-10-10-10h-80c-5.523 0-10 4.477-10 10v226h-28v-164c0-5.523-4.477-10-10-10h-80c-5.523 0-10 4.477-10 10v164h-24v-100c0-5.523-4.477-10-10-10H28c-5.523 0-10 4.477-10 10v100h-8c-5.523 0-10 4.477-10 10s4.477 10 10 10h492c5.523 0 10-4.477 10-10s-4.477-10-10-10zm-404 0H38v-90h60v90zm124 0h-60v-154h60v154zm128 0h-60v-216h60v216z"/><path d="M411.07 346.821c-1.86-1.86-4.44-2.92-7.07-2.92s-5.21 1.06-7.07 2.92a10.081 10.081 0 00-2.93 7.08c0 2.63 1.07 5.2 2.93 7.07 1.86 1.861 4.44 2.93 7.07 2.93s5.21-1.07 7.07-2.93c1.86-1.87 2.93-4.44 2.93-7.07 0-2.64-1.07-5.22-2.93-7.08zM436.001 0c-41.907 0-76 34.093-76 76s34.094 76 76 76c41.907 0 76-34.093 76-76s-34.093-76-76-76zm0 105.093c-6.254 0-11.341-4.203-11.341-9.368 0-5.523-4.477-10-10-10s-10 4.477-10 10c0 12.917 8.95 23.905 21.341 27.826v7.537c-26.121-4.731-46-27.624-46-55.088s19.879-50.357 46-55.088v8.251c-12.391 3.921-21.341 14.909-21.341 27.826 0 16.194 14.06 29.368 31.341 29.368 6.253 0 11.341 4.202 11.341 9.368s-5.087 9.368-11.341 9.368zm10 25.995v-7.537c12.391-3.921 21.341-14.909 21.341-27.826 0-16.193-14.06-29.368-31.341-29.368-6.253 0-11.341-4.203-11.341-9.368s5.087-9.368 11.341-9.368 11.341 4.203 11.341 9.368c0 5.523 4.477 10 10 10s10-4.477 10-10c0-12.917-8.95-23.905-21.341-27.826v-8.251c26.122 4.731 46 27.624 46 55.088s-19.879 50.357-46 55.088zm-90.003-1.721h-39.15c-5.523 0-10 4.477-10 10s4.477 10 10 10h15.007l-106.919 106.92-54.321-54.321c-3.905-3.904-10.237-3.904-14.143 0L47.718 310.719c-3.905 3.905-3.905 10.237 0 14.142 1.952 1.953 4.512 2.93 7.071 2.93s5.119-.977 7.071-2.929l101.683-101.683 54.321 54.321c3.905 3.905 10.237 3.905 14.143 0l113.991-113.991v15.008c0 5.523 4.477 10 10 10s10-4.477 10-10v-39.15c0-5.523-4.477-10-10-10zM35.86 336.722c-1.86-1.86-4.44-2.93-7.07-2.93s-5.21 1.07-7.07 2.93c-1.86 1.86-2.93 4.44-2.93 7.07s1.07 5.21 2.93 7.07c1.86 1.859 4.44 2.93 7.07 2.93s5.21-1.07 7.07-2.93c1.86-1.86 2.93-4.44 2.93-7.07s-1.07-5.21-2.93-7.07z"/></svg>