<svg version="1.1" id="Capa_1" xmlns="http://www.w3.org/2000/svg" x="0" y="0" viewBox="0 0 240 240" xml:space="preserve"><style>.st0{fill:none;stroke:#fff;stroke-width:4.3852;stroke-miterlimit:10}</style><path class="st0" d="M170.79 126.38c-32.1 32.1-58.3 48.19-77.15 51.73L62.55 148c3.23-18.91 19.32-45.41 51.88-77.97C165.14 19.32 230.04 2 234.43 6.38c3.35 3.35-12.93 69.29-63.64 120z"/><circle class="st0" cx="161.53" cy="77.54" r="19.51"/><path class="st0" d="M74.31 119.23s-29.58 1.88-39.63 34.24L62.55 148m59.94 18.07s-1.88 29.58-34.24 39.63l5.48-27.87m6.49-38.62l-39.66 39.66m-20.05 20.05L5.56 233.87m42.79-69.9L13.4 198.92m63.24-6.66l-34.95 34.95"/></svg>