<svg xmlns="http://www.w3.org/2000/svg" viewBox="0 0 240 240"><path d="M119.68 20.19l16.67 33.79 37.28 5.41-26.98 26.3 6.37 37.13-33.34-17.53-33.35 17.53 6.37-37.13-26.97-26.3 37.28-5.41zm62.75 204.9h-42.46v-43.83s.46-11.87 8.22-17.35c7.76-5.48 32.41-23.74 40.63-33.33 8.22-9.59 14.61-14.61 20.54-13.24 0 0-6.39-58.44 19.17-61.18 0 0 8.22 84-9.13 102.72s-39.71 20.56-36.97 66.21zm-10.16-49.71s54.5-34.41 37.09-58.04M59.17 225.09h42.46v-43.83s-.46-11.87-8.22-17.35c-7.76-5.48-32.41-23.74-40.63-33.33s-14.61-14.61-20.54-13.24c0 0 6.39-58.44-19.17-61.18 0 0-8.22 84 9.13 102.72s39.71 20.56 36.97 66.21zm10.16-49.71s-54.5-34.41-37.09-58.04m41.81-99.93l12.28 12.28m-40.2 71.87l16.65-4.93m100.23-79.22l-12.28 12.28m40.2 71.87l-16.65-4.93m-54.6 38.76l-.54 17.36" fill="none" stroke="#fff" stroke-width="5.08" stroke-miterlimit="10"/></svg>