<svg xmlns="http://www.w3.org/2000/svg" viewBox="0 0 240 240"><path d="M168.13 112.77c0-27.77-23.14-50.14-51.2-48.87-24.81 1.13-45.2 21.35-46.56 46.15-.39 7.17.79 14 3.18 20.23.2.53 2.7 5.38 5.77 11.28A107.734 107.734 0 0191.47 191l.02 8.94H151l-.13-12.32a107.96 107.96 0 017.28-40.09c3.17-8.19 6.19-15.97 6.38-16.45 2.31-5.65 3.6-11.82 3.6-18.31zm-73.27 87.18h53.01v9.46H94.86zm3.35 9.46h46.31v10.1H98.21zm6.1 10.1h34.09v9.01h-34.09zm4.29 9.01h25.52v6.75H108.6zM119.21 5.66v36.65m111.23 73.7h-36.65m3.48-78.07l-25.91 25.91m0 101.27l25.91 25.91M9.64 116.01h36.65m-3.48-78.07l25.91 25.91m0 101.27l-25.91 25.91m42.98-73.84s2.35-37.44 37.44-37.44" fill="none" stroke="#fff" stroke-width="4.385" stroke-miterlimit="10"/></svg>